<svg width="1584" height="396" viewBox="0 0 1584 396" fill="none" xmlns="http://www.w3.org/2000/svg">
<rect width="1584" height="396" fill="#F5F5F5"/>
<g id="Awesome banner" clip-path="url(#clip0_0_1)">
<rect width="1584" height="396" fill="url(#paint0_linear_0_1)"/>
<ellipse id="Ellipse 2" cx="323" cy="64" rx="285" ry="288" fill="url(#paint1_linear_0_1)" fill-opacity="0.1"/>
<g id="copyright">
<path d="M75.95 334.52L72.30 334.52L72.30 311.16L77.20 311.16L83.70 330.04Q83.60 329.02 83.50 327.62Q83.41 326.23 83.33 324.79Q83.25 323.35 83.25 322.23L83.25 311.16L86.90 311.16L86.90 334.52L82 334.52L75.57 315.64Q75.63 316.57 75.73 317.88Q75.82 319.19 75.89 320.57Q75.95 321.94 75.95 323.10L75.95 334.52M98.80 334.84Q96.46 334.84 94.67 333.96Q92.88 333.08 91.89 331.53Q90.90 329.98 90.90 327.93Q90.90 325.78 92.13 324.18Q93.36 322.58 95.34 322.17L95.34 322.10Q93.65 321.75 92.61 320.38Q91.57 319 91.57 317.11Q91.57 315.26 92.48 313.85Q93.39 312.44 95.02 311.64Q96.66 310.84 98.80 310.84Q100.94 310.84 102.59 311.64Q104.24 312.44 105.15 313.85Q106.06 315.26 106.06 317.11Q106.06 319 105.01 320.38Q103.95 321.75 102.26 322.10L102.26 322.17Q104.24 322.58 105.47 324.18Q106.70 325.78 106.70 327.93Q106.70 329.98 105.71 331.53Q104.72 333.08 102.93 333.96Q101.14 334.84 98.80 334.84M98.80 320.73Q100.30 320.73 101.23 319.82Q102.16 318.90 102.16 317.46Q102.16 315.99 101.23 315.08Q100.30 314.17 98.80 314.17Q97.30 314.17 96.37 315.08Q95.44 315.99 95.44 317.46Q95.44 318.90 96.37 319.82Q97.30 320.73 98.80 320.73M98.80 331.45Q100.56 331.45 101.68 330.42Q102.80 329.40 102.80 327.74Q102.80 326.04 101.68 325Q100.56 323.96 98.80 323.96Q97.04 323.96 95.92 325Q94.80 326.04 94.80 327.74Q94.80 329.40 95.92 330.42Q97.04 331.45 98.80 331.45M114.35 334.52L110.70 334.52L110.70 311.16L115.60 311.16L122.10 330.04Q122 329.02 121.90 327.62Q121.81 326.23 121.73 324.79Q121.65 323.35 121.65 322.23L121.65 311.16L125.30 311.16L125.30 334.52L120.40 334.52L113.97 315.64Q114.03 316.57 114.13 317.88Q114.22 319.19 114.29 320.57Q114.35 321.94 114.35 323.10" fill="white" fill-opacity="0.9"/>
<path d="M161.48 325.24L151.24 325.24L151.24 322.68L161.48 322.68" fill="white" fill-opacity="0.9"/>
<path d="M195.02 334.84Q191.82 334.84 189.96 333.05Q188.11 331.26 188.11 328.12L188.11 317.56Q188.11 314.42 189.96 312.63Q191.82 310.84 195.02 310.84Q198.15 310.84 200.01 312.65Q201.87 314.46 201.87 317.56L198.99 317.56Q198.99 315.58 197.95 314.50Q196.91 313.43 195.02 313.43Q193.13 313.43 192.06 314.50Q190.99 315.58 190.99 317.56L190.99 328.12Q190.99 330.10 192.06 331.18Q193.13 332.25 195.02 332.25Q196.91 332.25 197.95 331.18Q198.99 330.10 198.99 328.12L201.87 328.12Q201.87 331.22 200.01 333.03Q198.15 334.84 195.02 334.84" fill="white" fill-opacity="0.9"/>
<path d="M213.96 334.84Q210.83 334.84 209 333.02Q207.18 331.19 207.18 327.80L207.18 317.88Q207.18 314.49 209 312.66Q210.83 310.84 213.96 310.84Q217.10 310.84 218.92 312.66Q220.75 314.49 220.75 317.85L220.75 327.80Q220.75 331.19 218.92 333.02Q217.10 334.84 213.96 334.84M213.96 332.25Q215.85 332.25 216.86 331.18Q217.87 330.10 217.87 328.12L217.87 317.56Q217.87 315.58 216.86 314.50Q215.85 313.43 213.96 313.43Q212.11 313.43 211.08 314.50Q210.06 315.58 210.06 317.56L210.06 328.12Q210.06 330.10 211.08 331.18Q212.11 332.25 213.96 332.25" fill="white" fill-opacity="0.9"/>
<path d="M228.65 334.52L225.87 334.52L225.87 311.16L230.12 311.16L233.10 321.27L236.20 311.16L240.46 311.16L240.46 334.52L237.67 334.52L237.67 323.48Q237.67 321.91 237.72 319.88Q237.77 317.85 237.87 315.77Q237.96 313.69 238.09 312.02L234.31 324.09L231.82 324.09L228.20 312.31Q228.46 314.68 228.55 317.50Q228.65 320.31 228.65 323.48" fill="white" fill-opacity="0.9"/>
<path d="M247.85 334.52L245.07 334.52L245.07 311.16L249.32 311.16L252.30 321.27L255.40 311.16L259.66 311.16L259.66 334.52L256.87 334.52L256.87 323.48Q256.87 321.91 256.92 319.88Q256.97 317.85 257.07 315.77Q257.16 313.69 257.29 312.02L253.51 324.09L251.02 324.09L247.40 312.31Q247.66 314.68 247.75 317.50Q247.85 320.31 247.85 323.48" fill="white" fill-opacity="0.9"/>
<path d="M271.56 334.84Q268.30 334.84 266.57 333.03Q264.84 331.22 264.84 328.12L264.84 311.16L267.72 311.16L267.72 328.12Q267.72 330.04 268.67 331.16Q269.61 332.28 271.56 332.28Q273.48 332.28 274.44 331.16Q275.40 330.04 275.40 328.12L275.40 311.16L278.28 311.16L278.28 328.12Q278.28 331.26 276.57 333.05Q274.86 334.84 271.56 334.84" fill="white" fill-opacity="0.9"/>
<path d="M286.83 334.52L284.04 334.52L284.04 311.16L287.88 311.16L295.02 331.16Q294.95 330.36 294.87 329.19Q294.79 328.02 294.75 326.73Q294.70 325.43 294.70 324.28L294.70 311.16L297.48 311.16L297.48 334.52L293.64 334.52L286.54 314.52Q286.60 315.29 286.67 316.46Q286.73 317.62 286.78 318.92Q286.83 320.22 286.83 321.40" fill="white" fill-opacity="0.9"/>
<path d="M316.20 334.52L303.72 334.52L303.72 331.90L308.49 331.90L308.49 313.78L303.72 313.78L303.72 311.16L316.20 311.16L316.20 313.78L311.43 313.78L311.43 331.90L316.20 331.90" fill="white" fill-opacity="0.9"/>
<path d="M330.60 334.52L327.72 334.52L327.72 313.78L321.32 313.78L321.32 311.16L337 311.16L337 313.78L330.60 313.78" fill="white" fill-opacity="0.9"/>
<path d="M349.80 334.52L346.92 334.52L346.92 325.78L339.88 311.16L342.95 311.16L347.50 320.76Q347.88 321.56 348.11 322.12Q348.33 322.68 348.39 322.94Q348.46 322.68 348.70 322.12Q348.94 321.56 349.32 320.76L353.87 311.16L356.84 311.16L349.80 325.78" fill="white" fill-opacity="0.9"/>
<path d="M382.83 334.52L380.04 334.52L380.04 311.16L383.88 311.16L391.02 331.16Q390.95 330.36 390.87 329.19Q390.79 328.02 390.75 326.73Q390.70 325.43 390.70 324.28L390.70 311.16L393.48 311.16L393.48 334.52L389.64 334.52L382.54 314.52Q382.60 315.29 382.67 316.46Q382.73 317.62 382.78 318.92Q382.83 320.22 382.83 321.40" fill="white" fill-opacity="0.9"/>
<path d="M405.96 334.84Q402.83 334.84 401 333.02Q399.18 331.19 399.18 327.80L399.18 317.88Q399.18 314.49 401 312.66Q402.83 310.84 405.96 310.84Q409.10 310.84 410.92 312.66Q412.75 314.49 412.75 317.85L412.75 327.80Q412.75 331.19 410.92 333.02Q409.10 334.84 405.96 334.84M405.96 332.25Q407.85 332.25 408.86 331.18Q409.87 330.10 409.87 328.12L409.87 317.56Q409.87 315.58 408.86 314.50Q407.85 313.43 405.96 313.43Q404.11 313.43 403.08 314.50Q402.06 315.58 402.06 317.56L402.06 328.12Q402.06 330.10 403.08 331.18Q404.11 332.25 405.96 332.25" fill="white" fill-opacity="0.9"/>
<path d="M424.55 334.52L418.51 334.52L418.51 311.16L424.55 311.16Q426.83 311.16 428.47 312.02Q430.12 312.89 431.03 314.46Q431.95 316.02 431.95 318.17L431.95 327.48Q431.95 329.62 431.03 331.21Q430.12 332.79 428.47 333.66Q426.83 334.52 424.55 334.52M421.39 313.72L421.39 331.96L424.55 331.96Q426.67 331.96 427.87 330.78Q429.07 329.59 429.07 327.48L429.07 318.17Q429.07 316.09 427.87 314.90Q426.67 313.72 424.55 313.72" fill="white" fill-opacity="0.9"/>
<path d="M451.40 334.52L437.96 334.52L437.96 311.16L451.40 311.16L451.40 313.78L440.81 313.78L440.81 321.02L450.28 321.02L450.28 323.58L440.81 323.58L440.81 331.90L451.40 331.90" fill="white" fill-opacity="0.9"/>
<path d="M463.69 334.84Q460.30 334.84 458.28 333.05Q456.27 331.26 456.27 328.12L459.15 328.12Q459.15 330.07 460.39 331.18Q461.64 332.28 463.69 332.28Q465.67 332.28 466.86 331.13Q468.04 329.98 468.04 328.12Q468.04 326.71 467.29 325.67Q466.54 324.63 465.13 324.25L461.58 323.26Q459.37 322.62 458.11 320.97Q456.84 319.32 456.84 317.08Q456.84 315.22 457.67 313.82Q458.51 312.41 460.01 311.62Q461.51 310.84 463.47 310.84Q465.45 310.84 466.97 311.62Q468.49 312.41 469.35 313.80Q470.22 315.19 470.22 317.02L467.34 317.02Q467.34 315.42 466.25 314.41Q465.16 313.40 463.47 313.40Q461.77 313.40 460.71 314.41Q459.66 315.42 459.66 317.02Q459.66 318.30 460.35 319.21Q461.03 320.12 462.28 320.47L465.93 321.50Q468.27 322.14 469.56 323.91Q470.86 325.69 470.86 328.12Q470.86 331.19 468.91 333.02Q466.95 334.84 463.69 334.84" fill="white" fill-opacity="0.9"/>
</g>
<path d="M74.39 197.64L72.23 197.64L72.23 180.12L74.39 180.12L74.39 187.61L80.01 187.61L80.01 180.12L82.17 180.12L82.17 197.64L80.01 197.64L80.01 189.58L74.39 189.58" fill="white" fill-opacity="0.7"/>
<path d="M90.93 201.96L88.67 201.96L90.62 196.82L85.70 184.44L88.02 184.44L91.14 192.60Q91.34 193.08 91.50 193.61Q91.67 194.14 91.74 194.52Q91.82 194.14 91.98 193.61Q92.15 193.08 92.32 192.60L95.22 184.44L97.50 184.44" fill="white" fill-opacity="0.7"/>
<path d="M105.23 197.88Q103.26 197.88 102.08 196.56Q100.89 195.24 100.89 192.98L100.89 189.12Q100.89 186.84 102.06 185.52Q103.24 184.20 105.23 184.20Q106.72 184.20 107.69 184.94Q108.66 185.69 108.86 186.96L108.88 186.96L108.83 183.96L108.83 180.12L110.99 180.12L110.99 197.64L108.83 197.64L108.83 195.12L108.81 195.12Q108.64 196.42 107.68 197.15Q106.72 197.88 105.23 197.88M105.95 196.01Q107.30 196.01 108.06 195.17Q108.83 194.33 108.83 192.84L108.83 189.24Q108.83 187.75 108.06 186.91Q107.30 186.07 105.95 186.07Q104.58 186.07 103.82 186.78Q103.05 187.49 103.05 189.12L103.05 192.96Q103.05 194.57 103.82 195.29Q104.58 196.01 105.95 196.01" fill="white" fill-opacity="0.7"/>
<path d="M118.05 197.64L115.89 197.64L115.89 184.44L118.05 184.44L118.05 186.96L118.10 186.96Q118.26 185.69 119.18 184.94Q120.09 184.20 121.62 184.20Q123.69 184.20 124.80 185.44Q125.92 186.67 125.92 188.95L125.92 190.08L123.76 190.08L123.76 188.95Q123.76 186.07 120.95 186.07Q119.54 186.07 118.79 186.89Q118.05 187.70 118.05 189.24" fill="white" fill-opacity="0.7"/>
<path d="M133.65 197.88Q131.61 197.88 130.41 196.74Q129.21 195.60 129.21 193.75Q129.21 192.53 129.76 191.62Q130.31 190.70 131.30 190.19Q132.28 189.67 133.55 189.67L137.63 189.67L137.63 188.64Q137.63 186.07 134.82 186.07Q133.58 186.07 132.81 186.53Q132.04 186.98 131.99 187.80L129.83 187.80Q129.95 186.24 131.28 185.22Q132.62 184.20 134.82 184.20Q137.22 184.20 138.51 185.35Q139.79 186.50 139.79 188.57L139.79 197.64L137.66 197.64L137.66 195.24L137.61 195.24Q137.42 196.46 136.38 197.17Q135.35 197.88 133.65 197.88M134.18 196.06Q135.76 196.06 136.70 195.29Q137.63 194.52 137.63 193.20L137.63 191.35L133.79 191.35Q132.74 191.35 132.08 191.99Q131.42 192.62 131.42 193.68Q131.42 194.78 132.15 195.42Q132.88 196.06 134.18 196.06" fill="white" fill-opacity="0.7"/>
<path d="M160.22 197.64L158.13 197.64L158.13 180.12L161.32 180.12L163.55 187.70L165.88 180.12L169.07 180.12L169.07 197.64L166.98 197.64L166.98 189.36Q166.98 188.18 167.02 186.66Q167.06 185.14 167.13 183.58Q167.20 182.02 167.30 180.77L164.46 189.82L162.59 189.82L159.88 180.98Q160.07 182.76 160.14 184.87Q160.22 186.98 160.22 189.36" fill="white" fill-opacity="0.7"/>
<path d="MNaN 197.83Q175.62 197.83 174.22 196.44Q172.82 195.05 172.82 192.55L172.82 189.53Q172.82 187.01 174.21 185.63Q175.60 184.25 NaN 184.25Q180.40 184.25 181.79 185.63Q183.18 187.01 183.18 189.53L183.18 192.55Q183.18 195.05 181.78 196.44Q180.38 197.83 NaN 197.83MNaN 195.91Q179.42 195.91 180.22 195.12Q181.02 194.33 181.02 192.79L181.02 189.29Q181.02 187.75 180.22 186.96Q179.42 186.17 NaN 186.17Q176.61 186.17 175.79 186.96Q174.98 187.75 174.98 189.29L174.98 192.79Q174.98 194.33 175.79 195.12Q176.61 195.91 NaN 195.91" fill="white" fill-opacity="0.7"/>
<path d="M193.82 197.64L190.98 197.64L186.50 184.44L188.82 184.44L191.70 193.32Q191.97 194.11 192.16 194.84Q192.35 195.58 192.45 195.98Q192.57 195.58 192.74 194.84Q192.90 194.11 193.14 193.32L196.02 184.44L198.30 184.44" fill="white" fill-opacity="0.7"/>
<path d="M212.92 197.64L201.64 197.64L201.64 195.67L206.32 195.67L206.32 186.41L202.12 186.41L202.12 184.44L208.48 184.44L208.48 195.67L212.92 195.67L212.92 197.64M207.16 182.06Q206.37 182.06 205.91 181.66Q205.46 181.25 205.46 180.55Q205.46 179.83 205.91 179.41Q206.37 178.99 207.16 178.99Q207.95 178.99 208.41 179.41Q208.86 179.83 208.86 180.55Q208.86 181.25 208.41 181.66Q207.95 182.06 207.16 182.06" fill="white" fill-opacity="0.7"/>
<path d="M221.20 197.88Q218.87 197.88 217.44 196.48Q216.02 195.07 216.02 192.60L216.02 189.48Q216.02 187.01 217.44 185.60Q218.87 184.20 221.20 184.20Q222.76 184.20 223.92 184.82Q225.09 185.45 225.74 186.58Q226.38 187.70 226.38 189.24L226.38 191.59L218.13 191.59L218.13 192.84Q218.13 194.30 218.97 195.16Q219.81 196.01 221.20 196.01Q222.40 196.01 223.18 195.54Q223.96 195.07 224.13 194.28L226.29 194.28Q226.07 195.94 224.68 196.91Q223.29 197.88 221.20 197.88M218.13 189.24L218.13 189.91L224.27 189.91L224.27 189.24Q224.27 187.68 223.47 186.83Q222.66 185.98 221.20 185.98Q219.74 185.98 218.93 186.83Q218.13 187.68 218.13 189.24" fill="white" fill-opacity="0.7"/>
<path d="M236.13 197.83L235.07 197.83Q232.86 197.83 231.65 196.84Q230.44 195.84 230.44 194.02L232.60 194.02Q232.60 194.93 233.25 195.44Q233.90 195.96 235.07 195.96L236.13 195.96Q237.33 195.96 237.99 195.43Q238.65 194.90 238.65 193.94Q238.65 192.24 237.09 192.02L233.44 191.50Q232.10 191.30 231.35 190.38Q230.61 189.46 230.61 187.94Q230.61 186.22 231.80 185.23Q232.98 184.25 235.07 184.25L236.13 184.25Q238.05 184.25 239.26 185.20Q240.47 186.14 240.57 187.68L238.38 187.68Q238.34 186.98 237.72 186.53Q237.11 186.07 236.13 186.07L235.07 186.07Q233.97 186.07 233.34 186.58Q232.72 187.08 232.72 187.94Q232.72 189.34 233.99 189.53L237.40 190.01Q240.76 190.49 240.76 193.94Q240.76 195.79 239.55 196.81Q238.34 197.83 236.13 197.83" fill="white" fill-opacity="0.7"/>
<path d="MNaN 187.75Q249.02 187.75 248.51 187.27Q248.01 186.79 248.01 185.98Q248.01 185.16 248.51 184.68Q249.02 184.20 NaN 184.20Q250.98 184.20 251.49 184.68Q251.99 185.16 251.99 185.98Q251.99 186.79 251.49 187.27Q250.98 187.75 NaN 187.75MNaN 197.88Q249.02 197.88 248.51 197.40Q248.01 196.92 248.01 196.10Q248.01 195.29 248.51 194.81Q249.02 194.33 NaN 194.33Q250.98 194.33 251.49 194.81Q251.99 195.29 251.99 196.10Q251.99 196.92 251.49 197.40Q250.98 197.88 NaN 197.88" fill="white" fill-opacity="0.7"/>
<path d="M279.33 197.83L278.27 197.83Q276.06 197.83 274.85 196.84Q273.64 195.84 273.64 194.02L275.80 194.02Q275.80 194.93 276.45 195.44Q277.10 195.96 278.27 195.96L279.33 195.96Q280.53 195.96 281.19 195.43Q281.85 194.90 281.85 193.94Q281.85 192.24 280.29 192.02L276.64 191.50Q275.30 191.30 274.55 190.38Q273.81 189.46 273.81 187.94Q273.81 186.22 275 185.23Q276.18 184.25 278.27 184.25L279.33 184.25Q281.25 184.25 282.46 185.20Q283.67 186.14 283.77 187.68L281.58 187.68Q281.54 186.98 280.92 186.53Q280.31 186.07 279.33 186.07L278.27 186.07Q277.17 186.07 276.54 186.58Q275.92 187.08 275.92 187.94Q275.92 189.34 277.19 189.53L280.60 190.01Q283.96 190.49 283.96 193.94Q283.96 195.79 282.75 196.81Q281.54 197.83 279.33 197.83" fill="white" fill-opacity="0.7"/>
<path d="M298.36 197.64L294.52 197.64Q292.89 197.64 291.90 196.69Q290.92 195.74 290.92 194.16L290.92 186.41L287.13 186.41L287.13 184.44L290.92 184.44L290.92 180.72L293.08 180.72L293.08 184.44L298.48 184.44L298.48 186.41L293.08 186.41L293.08 194.16Q293.08 194.83 293.48 195.25Q293.87 195.67 294.52 195.67L298.36 195.67" fill="white" fill-opacity="0.7"/>
<path d="M305.25 197.64L303.09 197.64L303.09 184.44L305.25 184.44L305.25 186.96L305.30 186.96Q305.46 185.69 306.38 184.94Q307.29 184.20 308.82 184.20Q310.89 184.20 312 185.44Q313.12 186.67 313.12 188.95L313.12 190.08L310.96 190.08L310.96 188.95Q310.96 186.07 308.15 186.07Q306.74 186.07 305.99 186.89Q305.25 187.70 305.25 189.24" fill="white" fill-opacity="0.7"/>
<path d="M322 197.88Q319.67 197.88 318.24 196.48Q316.82 195.07 316.82 192.60L316.82 189.48Q316.82 187.01 318.24 185.60Q319.67 184.20 322 184.20Q323.56 184.20 324.72 184.82Q325.89 185.45 326.54 186.58Q327.18 187.70 327.18 189.24L327.18 191.59L318.93 191.59L318.93 192.84Q318.93 194.30 319.77 195.16Q320.61 196.01 322 196.01Q323.20 196.01 323.98 195.54Q324.76 195.07 324.93 194.28L327.09 194.28Q326.87 195.94 325.48 196.91Q324.09 197.88 322 197.88M318.93 189.24L318.93 189.91L325.07 189.91L325.07 189.24Q325.07 187.68 324.27 186.83Q323.46 185.98 322 185.98Q320.54 185.98 319.73 186.83Q318.93 187.68 318.93 189.24" fill="white" fill-opacity="0.7"/>
<path d="M335.25 197.88Q333.21 197.88 332.01 196.74Q330.81 195.60 330.81 193.75Q330.81 192.53 331.36 191.62Q331.91 190.70 332.90 190.19Q333.88 189.67 335.15 189.67L339.23 189.67L339.23 188.64Q339.23 186.07 336.42 186.07Q335.18 186.07 334.41 186.53Q333.64 186.98 333.59 187.80L331.43 187.80Q331.55 186.24 332.88 185.22Q334.22 184.20 336.42 184.20Q338.82 184.20 340.11 185.35Q341.39 186.50 341.39 188.57L341.39 197.64L339.26 197.64L339.26 195.24L339.21 195.24Q339.02 196.46 337.98 197.17Q336.95 197.88 335.25 197.88M335.78 196.06Q337.36 196.06 338.30 195.29Q339.23 194.52 339.23 193.20L339.23 191.35L335.39 191.35Q334.34 191.35 333.68 191.99Q333.02 192.62 333.02 193.68Q333.02 194.78 333.75 195.42Q334.48 196.06 335.78 196.06" fill="white" fill-opacity="0.7"/>
<path d="M347.06 197.64L345.04 197.64L345.04 184.44L346.91 184.44L346.91 186.19L346.96 186.19Q347.08 185.30 347.67 184.75Q348.26 184.20 349.17 184.20Q350.03 184.20 350.63 184.70Q351.23 185.21 351.50 186.07L351.52 186.07Q351.69 185.21 352.28 184.70Q352.86 184.20 353.78 184.20Q355.05 184.20 355.80 185.15Q356.56 186.10 356.56 187.61L356.56 197.64L354.54 197.64L354.54 187.58Q354.54 186.79 354.16 186.32Q353.78 185.86 353.10 185.86Q352.46 185.86 352.07 186.31Q351.69 186.77 351.69 187.56L351.69 197.64L349.91 197.64L349.91 187.58Q349.91 186.79 349.53 186.32Q349.14 185.86 348.50 185.86Q347.82 185.86 347.44 186.31Q347.06 186.77 347.06 187.56" fill="white" fill-opacity="0.7"/>
<path d="M371.32 197.64L360.04 197.64L360.04 195.67L364.72 195.67L364.72 186.41L360.52 186.41L360.52 184.44L366.88 184.44L366.88 195.67L371.32 195.67L371.32 197.64M365.56 182.06Q364.77 182.06 364.31 181.66Q363.86 181.25 363.86 180.55Q363.86 179.83 364.31 179.41Q364.77 178.99 365.56 178.99Q366.35 178.99 366.81 179.41Q367.26 179.83 367.26 180.55Q367.26 181.25 366.81 181.66Q366.35 182.06 365.56 182.06" fill="white" fill-opacity="0.7"/>
<path d="M376.77 197.64L374.61 197.64L374.61 184.44L376.77 184.44L376.77 186.96L376.79 186.96Q376.96 185.64 377.87 184.92Q378.78 184.20 380.30 184.20Q382.29 184.20 383.46 185.42Q384.64 186.65 384.64 188.76L384.64 197.64L382.48 197.64L382.48 189.14Q382.48 187.63 381.72 186.83Q380.97 186.02 379.67 186.02Q378.33 186.02 377.55 186.86Q376.77 187.70 376.77 189.24" fill="white" fill-opacity="0.7"/>
<path d="M394.36 201.96L390.66 201.96L390.66 199.99L394.38 199.99Q395.51 199.99 396.16 199.36Q396.81 198.72 396.81 197.64L396.81 196.44L396.86 194.28L396.78 194.28Q396.59 195.46 395.66 196.09Q394.72 196.73 393.30 196.73Q391.26 196.73 390.09 195.43Q388.91 194.14 388.91 191.88L388.91 189.10Q388.91 186.84 390.09 185.52Q391.26 184.20 393.30 184.20Q394.72 184.20 395.66 184.87Q396.59 185.54 396.78 186.72L396.83 186.72L396.83 184.44L398.97 184.44L398.97 197.64Q398.97 199.63 397.73 200.80Q396.50 201.96 394.36 201.96M393.95 194.93Q395.30 194.93 396.06 194.09Q396.83 193.25 396.83 191.76L396.83 189.24Q396.83 187.75 396.06 186.91Q395.30 186.07 393.95 186.07Q392.58 186.07 391.83 186.86Q391.07 187.66 391.07 189L391.07 192Q391.07 193.34 391.83 194.14Q392.58 194.93 393.95 194.93" fill="white" fill-opacity="0.7"/>
<path d="M423.33 197.83L422.27 197.83Q420.06 197.83 418.85 196.84Q417.64 195.84 417.64 194.02L419.80 194.02Q419.80 194.93 420.45 195.44Q421.10 195.96 422.27 195.96L423.33 195.96Q424.53 195.96 425.19 195.43Q425.85 194.90 425.85 193.94Q425.85 192.24 424.29 192.02L420.64 191.50Q419.30 191.30 418.55 190.38Q417.81 189.46 417.81 187.94Q417.81 186.22 419 185.23Q420.18 184.25 422.27 184.25L423.33 184.25Q425.25 184.25 426.46 185.20Q427.67 186.14 427.77 187.68L425.58 187.68Q425.54 186.98 424.92 186.53Q424.31 186.07 423.33 186.07L422.27 186.07Q421.17 186.07 420.54 186.58Q419.92 187.08 419.92 187.94Q419.92 189.34 421.19 189.53L424.60 190.01Q427.96 190.49 427.96 193.94Q427.96 195.79 426.75 196.81Q425.54 197.83 423.33 197.83" fill="white" fill-opacity="0.7"/>
<path d="M437.20 197.88Q434.87 197.88 433.44 196.48Q432.02 195.07 432.02 192.60L432.02 189.48Q432.02 187.01 433.44 185.60Q434.87 184.20 437.20 184.20Q438.76 184.20 439.92 184.82Q441.09 185.45 441.74 186.58Q442.38 187.70 442.38 189.24L442.38 191.59L434.13 191.59L434.13 192.84Q434.13 194.30 434.97 195.16Q435.81 196.01 437.20 196.01Q438.40 196.01 439.18 195.54Q439.96 195.07 440.13 194.28L442.29 194.28Q442.07 195.94 440.68 196.91Q439.29 197.88 437.20 197.88M434.13 189.24L434.13 189.91L440.27 189.91L440.27 189.24Q440.27 187.68 439.47 186.83Q438.66 185.98 437.20 185.98Q435.74 185.98 434.93 186.83Q434.13 187.68 434.13 189.24" fill="white" fill-opacity="0.7"/>
<path d="M449.25 197.64L447.09 197.64L447.09 184.44L449.25 184.44L449.25 186.96L449.30 186.96Q449.46 185.69 450.38 184.94Q451.29 184.20 452.82 184.20Q454.89 184.20 456 185.44Q457.12 186.67 457.12 188.95L457.12 190.08L454.96 190.08L454.96 188.95Q454.96 186.07 452.15 186.07Q450.74 186.07 449.99 186.89Q449.25 187.70 449.25 189.24" fill="white" fill-opacity="0.7"/>
<path d="M467.42 197.64L464.58 197.64L460.10 184.44L462.42 184.44L465.30 193.32Q465.57 194.11 465.76 194.84Q465.95 195.58 466.05 195.98Q466.17 195.58 466.34 194.84Q466.50 194.11 466.74 193.32L469.62 184.44L471.90 184.44" fill="white" fill-opacity="0.7"/>
<path d="M486.52 197.64L475.24 197.64L475.24 195.67L479.92 195.67L479.92 186.41L475.72 186.41L475.72 184.44L482.08 184.44L482.08 195.67L486.52 195.67L486.52 197.64M480.76 182.06Q479.97 182.06 479.51 181.66Q479.06 181.25 479.06 180.55Q479.06 179.83 479.51 179.41Q479.97 178.99 480.76 178.99Q481.55 178.99 482.01 179.41Q482.46 179.83 482.46 180.55Q482.46 181.25 482.01 181.66Q481.55 182.06 480.76 182.06" fill="white" fill-opacity="0.7"/>
<path d="M494.99 197.88Q492.59 197.88 491.15 196.54Q489.71 195.19 489.71 192.84L489.71 189.24Q489.71 186.89 491.15 185.54Q492.59 184.20 494.99 184.20Q497.27 184.20 498.68 185.42Q500.08 186.65 500.15 188.76L497.99 188.76Q497.92 187.49 497.13 186.80Q496.34 186.12 494.99 186.12Q493.58 186.12 492.72 186.92Q491.87 187.73 491.87 189.22L491.87 192.84Q491.87 194.33 492.72 195.14Q493.58 195.96 494.99 195.96Q496.34 195.96 497.13 195.26Q497.92 194.57 497.99 193.32L500.15 193.32Q500.08 195.43 498.68 196.66Q497.27 197.88 494.99 197.88" fill="white" fill-opacity="0.7"/>
<path d="M509.20 197.88Q506.87 197.88 505.44 196.48Q504.02 195.07 504.02 192.60L504.02 189.48Q504.02 187.01 505.44 185.60Q506.87 184.20 509.20 184.20Q510.76 184.20 511.92 184.82Q513.09 185.45 513.74 186.58Q514.38 187.70 514.38 189.24L514.38 191.59L506.13 191.59L506.13 192.84Q506.13 194.30 506.97 195.16Q507.81 196.01 509.20 196.01Q510.40 196.01 511.18 195.54Q511.96 195.07 512.13 194.28L514.29 194.28Q514.07 195.94 512.68 196.91Q511.29 197.88 509.20 197.88M506.13 189.24L506.13 189.91L512.27 189.91L512.27 189.24Q512.27 187.68 511.47 186.83Q510.66 185.98 509.20 185.98Q507.74 185.98 506.93 186.83Q506.13 187.68 506.13 189.24" fill="white" fill-opacity="0.7"/>
<path d="M536.08 197.64L533.70 197.64L531.54 184.44L533.42 184.44L534.76 193.75Q534.83 194.28 534.90 194.92Q534.98 195.55 535 195.96Q535.05 195.55 535.11 194.92Q535.17 194.28 535.26 193.75L536.92 184.44L539.08 184.44L540.74 193.75Q540.83 194.28 540.92 194.92Q541 195.55 541.02 195.96Q541.07 195.55 541.14 194.92Q541.22 194.28 541.29 193.75L542.68 184.44L544.46 184.44L542.20 197.64L539.82 197.64L538.31 188.52Q538.22 187.85 538.13 187.09Q538.05 186.34 538 185.93Q537.98 186.34 537.88 187.09Q537.78 187.85 537.66 188.52" fill="white" fill-opacity="0.7"/>
<path d="M558.52 197.64L547.24 197.64L547.24 195.67L551.92 195.67L551.92 186.41L547.72 186.41L547.72 184.44L554.08 184.44L554.08 195.67L558.52 195.67L558.52 197.64M552.76 182.06Q551.97 182.06 551.51 181.66Q551.06 181.25 551.06 180.55Q551.06 179.83 551.51 179.41Q551.97 178.99 552.76 178.99Q553.55 178.99 554.01 179.41Q554.46 179.83 554.46 180.55Q554.46 181.25 554.01 181.66Q553.55 182.06 552.76 182.06" fill="white" fill-opacity="0.7"/>
<path d="M571.96 197.64L568.12 197.64Q566.49 197.64 565.50 196.69Q564.52 195.74 564.52 194.16L564.52 186.41L560.73 186.41L560.73 184.44L564.52 184.44L564.52 180.72L566.68 180.72L566.68 184.44L572.08 184.44L572.08 186.41L566.68 186.41L566.68 194.16Q566.68 194.83 567.08 195.25Q567.47 195.67 568.12 195.67L571.96 195.67" fill="white" fill-opacity="0.7"/>
<path d="M578.37 197.64L576.21 197.64L576.21 180.12L578.37 180.12L578.37 186.96L578.39 186.96Q578.56 185.64 579.47 184.92Q580.38 184.20 581.90 184.20Q583.89 184.20 585.06 185.42Q586.24 186.65 586.24 188.76L586.24 197.64L584.08 197.64L584.08 189.12Q584.08 187.63 583.32 186.83Q582.57 186.02 581.27 186.02Q579.93 186.02 579.15 186.86Q578.37 187.70 578.37 189.24" fill="white" fill-opacity="0.7"/>
<path d="M615.16 197.64L611.32 197.64Q609.69 197.64 608.70 196.69Q607.72 195.74 607.72 194.16L607.72 186.41L603.93 186.41L603.93 184.44L607.72 184.44L607.72 180.72L609.88 180.72L609.88 184.44L615.28 184.44L615.28 186.41L609.88 186.41L609.88 194.16Q609.88 194.83 610.28 195.25Q610.67 195.67 611.32 195.67L615.16 195.67" fill="white" fill-opacity="0.7"/>
<path d="M621.57 197.64L619.41 197.64L619.41 180.12L621.57 180.12L621.57 186.96L621.59 186.96Q621.76 185.64 622.67 184.92Q623.58 184.20 625.10 184.20Q627.09 184.20 628.26 185.42Q629.44 186.65 629.44 188.76L629.44 197.64L627.28 197.64L627.28 189.12Q627.28 187.63 626.52 186.83Q625.77 186.02 624.47 186.02Q623.13 186.02 622.35 186.86Q621.57 187.70 621.57 189.24" fill="white" fill-opacity="0.7"/>
<path d="M638.80 197.83Q636.42 197.83 635.02 196.44Q633.62 195.05 633.62 192.55L633.62 189.53Q633.62 187.01 635.01 185.63Q636.40 184.25 638.80 184.25Q641.20 184.25 642.59 185.63Q643.98 187.01 643.98 189.53L643.98 192.55Q643.98 195.05 642.58 196.44Q641.18 197.83 638.80 197.83M638.80 195.91Q640.22 195.91 641.02 195.12Q641.82 194.33 641.82 192.79L641.82 189.29Q641.82 187.75 641.02 186.96Q640.22 186.17 638.80 186.17Q637.41 186.17 636.59 186.96Q635.78 187.75 635.78 189.29L635.78 192.79Q635.78 194.33 636.59 195.12Q637.41 195.91 638.80 195.91" fill="white" fill-opacity="0.7"/>
<path d="M653.18 197.88Q650.90 197.88 649.53 196.52Q648.16 195.17 648.16 192.84L648.16 184.44L650.32 184.44L650.32 192.84Q650.32 194.28 651.09 195.13Q651.86 195.98 653.18 195.98Q654.52 195.98 655.30 195.13Q656.08 194.28 656.08 192.84L656.08 184.44L658.24 184.44L658.24 192.84Q658.24 195.17 656.85 196.52Q655.46 197.88 653.18 197.88" fill="white" fill-opacity="0.7"/>
<path d="M668.13 197.83L667.07 197.83Q664.86 197.83 663.65 196.84Q662.44 195.84 662.44 194.02L664.60 194.02Q664.60 194.93 665.25 195.44Q665.90 195.96 667.07 195.96L668.13 195.96Q669.33 195.96 669.99 195.43Q670.65 194.90 670.65 193.94Q670.65 192.24 669.09 192.02L665.44 191.50Q664.10 191.30 663.35 190.38Q662.61 189.46 662.61 187.94Q662.61 186.22 663.80 185.23Q664.98 184.25 667.07 184.25L668.13 184.25Q670.05 184.25 671.26 185.20Q672.47 186.14 672.57 187.68L670.38 187.68Q670.34 186.98 669.72 186.53Q669.11 186.07 668.13 186.07L667.07 186.07Q665.97 186.07 665.34 186.58Q664.72 187.08 664.72 187.94Q664.72 189.34 665.99 189.53L669.40 190.01Q672.76 190.49 672.76 193.94Q672.76 195.79 671.55 196.81Q670.34 197.83 668.13 197.83" fill="white" fill-opacity="0.7"/>
<path d="M680.85 197.88Q678.81 197.88 677.61 196.74Q676.41 195.60 676.41 193.75Q676.41 192.53 676.96 191.62Q677.51 190.70 678.50 190.19Q679.48 189.67 680.75 189.67L684.83 189.67L684.83 188.64Q684.83 186.07 682.02 186.07Q680.78 186.07 680.01 186.53Q679.24 186.98 679.19 187.80L677.03 187.80Q677.15 186.24 678.48 185.22Q679.82 184.20 682.02 184.20Q684.42 184.20 685.71 185.35Q686.99 186.50 686.99 188.57L686.99 197.64L684.86 197.64L684.86 195.24L684.81 195.24Q684.62 196.46 683.58 197.17Q682.55 197.88 680.85 197.88M681.38 196.06Q682.96 196.06 683.90 195.29Q684.83 194.52 684.83 193.20L684.83 191.35L680.99 191.35Q679.94 191.35 679.28 191.99Q678.62 192.62 678.62 193.68Q678.62 194.78 679.35 195.42Q680.08 196.06 681.38 196.06" fill="white" fill-opacity="0.7"/>
<path d="M693.57 197.64L691.41 197.64L691.41 184.44L693.57 184.44L693.57 186.96L693.59 186.96Q693.76 185.64 694.67 184.92Q695.58 184.20 697.10 184.20Q699.09 184.20 700.26 185.42Q701.44 186.65 701.44 188.76L701.44 197.64L699.28 197.64L699.28 189.14Q699.28 187.63 698.52 186.83Q697.77 186.02 696.47 186.02Q695.13 186.02 694.35 186.86Q693.57 187.70 693.57 189.24" fill="white" fill-opacity="0.7"/>
<path d="M710.03 197.88Q708.06 197.88 706.88 196.56Q705.69 195.24 705.69 192.98L705.69 189.12Q705.69 186.84 706.86 185.52Q708.04 184.20 710.03 184.20Q711.52 184.20 712.49 184.94Q713.46 185.69 713.66 186.96L713.68 186.96L713.63 183.96L713.63 180.12L715.79 180.12L715.79 197.64L713.63 197.64L713.63 195.12L713.61 195.12Q713.44 196.42 712.48 197.15Q711.52 197.88 710.03 197.88M710.75 196.01Q712.10 196.01 712.86 195.17Q713.63 194.33 713.63 192.84L713.63 189.24Q713.63 187.75 712.86 186.91Q712.10 186.07 710.75 186.07Q709.38 186.07 708.62 186.78Q707.85 187.49 707.85 189.12L707.85 192.96Q707.85 194.57 708.62 195.29Q709.38 196.01 710.75 196.01" fill="white" fill-opacity="0.7"/>
<path d="M725.73 197.83L724.67 197.83Q722.46 197.83 721.25 196.84Q720.04 195.84 720.04 194.02L722.20 194.02Q722.20 194.93 722.85 195.44Q723.50 195.96 724.67 195.96L725.73 195.96Q726.93 195.96 727.59 195.43Q728.25 194.90 728.25 193.94Q728.25 192.24 726.69 192.02L723.04 191.50Q721.70 191.30 720.95 190.38Q720.21 189.46 720.21 187.94Q720.21 186.22 721.40 185.23Q722.58 184.25 724.67 184.25L725.73 184.25Q727.65 184.25 728.86 185.20Q730.07 186.14 730.17 187.68L727.98 187.68Q727.94 186.98 727.32 186.53Q726.71 186.07 725.73 186.07L724.67 186.07Q723.57 186.07 722.94 186.58Q722.32 187.08 722.32 187.94Q722.32 189.34 723.59 189.53L727 190.01Q730.36 190.49 730.36 193.94Q730.36 195.79 729.15 196.81Q727.94 197.83 725.73 197.83" fill="white" fill-opacity="0.7"/>
<path d="M754 197.83Q751.62 197.83 750.22 196.44Q748.82 195.05 748.82 192.55L748.82 189.53Q748.82 187.01 750.21 185.63Q751.60 184.25 754 184.25Q756.40 184.25 757.79 185.63Q759.18 187.01 759.18 189.53L759.18 192.55Q759.18 195.05 757.78 196.44Q756.38 197.83 754 197.83M754 195.91Q755.42 195.91 756.22 195.12Q757.02 194.33 757.02 192.79L757.02 189.29Q757.02 187.75 756.22 186.96Q755.42 186.17 754 186.17Q752.61 186.17 751.79 186.96Q750.98 187.75 750.98 189.29L750.98 192.79Q750.98 194.33 751.79 195.12Q752.61 195.91 754 195.91" fill="white" fill-opacity="0.7"/>
<path d="M768.52 197.64L766.36 197.64L766.36 188.21L762.52 188.21L762.52 186.24L766.36 186.24L766.36 183.48Q766.36 181.92 767.34 181.02Q768.33 180.12 770.06 180.12L773.92 180.12L773.92 182.09L770.06 182.09Q768.52 182.09 768.52 183.48L768.52 186.24L773.92 186.24L773.92 188.21L768.52 188.21" fill="white" fill-opacity="0.7"/>
<path d="M794.37 201.96L792.21 201.96L792.21 184.44L794.37 184.44L794.37 186.96L794.39 186.96Q794.56 185.66 795.52 184.93Q796.48 184.20 797.97 184.20Q799.96 184.20 801.14 185.51Q802.31 186.82 802.31 189.10L802.31 192.96Q802.31 195.24 801.14 196.56Q799.96 197.88 797.97 197.88Q796.48 197.88 795.52 197.14Q794.56 196.39 794.39 195.12L794.32 195.12L794.37 198.12L794.37 201.96M797.25 196.01Q798.62 196.01 799.38 195.29Q800.15 194.57 800.15 192.96L800.15 189.12Q800.15 187.49 799.38 186.78Q798.62 186.07 797.25 186.07Q795.93 186.07 795.15 186.91Q794.37 187.75 794.37 189.24L794.37 192.84Q794.37 194.33 795.15 195.17Q795.93 196.01 797.25 196.01" fill="white" fill-opacity="0.7"/>
<path d="M811.60 197.83Q809.22 197.83 807.82 196.44Q806.42 195.05 806.42 192.55L806.42 189.53Q806.42 187.01 807.81 185.63Q809.20 184.25 811.60 184.25Q814 184.25 815.39 185.63Q816.78 187.01 816.78 189.53L816.78 192.55Q816.78 195.05 815.38 196.44Q813.98 197.83 811.60 197.83M811.60 195.91Q813.02 195.91 813.82 195.12Q814.62 194.33 814.62 192.79L814.62 189.29Q814.62 187.75 813.82 186.96Q813.02 186.17 811.60 186.17Q810.21 186.17 809.39 186.96Q808.58 187.75 808.58 189.29L808.58 192.79Q808.58 194.33 809.39 195.12Q810.21 195.91 811.60 195.91" fill="white" fill-opacity="0.7"/>
<path d="M823.17 201.96L821.01 201.96L821.01 184.44L823.17 184.44L823.17 186.96L823.19 186.96Q823.36 185.66 824.32 184.93Q825.28 184.20 826.77 184.20Q828.76 184.20 829.94 185.51Q831.11 186.82 831.11 189.10L831.11 192.96Q831.11 195.24 829.94 196.56Q828.76 197.88 826.77 197.88Q825.28 197.88 824.32 197.14Q823.36 196.39 823.19 195.12L823.12 195.12L823.17 198.12L823.17 201.96M826.05 196.01Q827.42 196.01 828.18 195.29Q828.95 194.57 828.95 192.96L828.95 189.12Q828.95 187.49 828.18 186.78Q827.42 186.07 826.05 186.07Q824.73 186.07 823.95 186.91Q823.17 187.75 823.17 189.24L823.17 192.84Q823.17 194.33 823.95 195.17Q824.73 196.01 826.05 196.01" fill="white" fill-opacity="0.7"/>
<path d="M840.38 197.88Q838.10 197.88 836.73 196.52Q835.36 195.17 835.36 192.84L835.36 184.44L837.52 184.44L837.52 192.84Q837.52 194.28 838.29 195.13Q839.06 195.98 840.38 195.98Q841.72 195.98 842.50 195.13Q843.28 194.28 843.28 192.84L843.28 184.44L845.44 184.44L845.44 192.84Q845.44 195.17 844.05 196.52Q842.66 197.88 840.38 197.88" fill="white" fill-opacity="0.7"/>
<path d="M860.80 197.64L856.72 197.64Q854.97 197.64 853.92 196.62Q852.88 195.60 852.88 193.92L852.88 182.09L848.32 182.09L848.32 180.12L855.04 180.12L855.04 193.92Q855.04 194.74 855.50 195.20Q855.95 195.67 856.72 195.67L860.80 195.67" fill="white" fill-opacity="0.7"/>
<path d="M868.05 197.88Q866.01 197.88 864.81 196.74Q863.61 195.60 863.61 193.75Q863.61 192.53 864.16 191.62Q864.71 190.70 865.70 190.19Q866.68 189.67 867.95 189.67L872.03 189.67L872.03 188.64Q872.03 186.07 869.22 186.07Q867.98 186.07 867.21 186.53Q866.44 186.98 866.39 187.80L864.23 187.80Q864.35 186.24 865.68 185.22Q867.02 184.20 869.22 184.20Q871.62 184.20 872.91 185.35Q874.19 186.50 874.19 188.57L874.19 197.64L872.06 197.64L872.06 195.24L872.01 195.24Q871.82 196.46 870.78 197.17Q869.75 197.88 868.05 197.88M868.58 196.06Q870.16 196.06 871.10 195.29Q872.03 194.52 872.03 193.20L872.03 191.35L868.19 191.35Q867.14 191.35 866.48 191.99Q865.82 192.62 865.82 193.68Q865.82 194.78 866.55 195.42Q867.28 196.06 868.58 196.06" fill="white" fill-opacity="0.7"/>
<path d="M881.25 197.64L879.09 197.64L879.09 184.44L881.25 184.44L881.25 186.96L881.30 186.96Q881.46 185.69 882.38 184.94Q883.29 184.20 884.82 184.20Q886.89 184.20 888 185.44Q889.12 186.67 889.12 188.95L889.12 190.08L886.96 190.08L886.96 188.95Q886.96 186.07 884.15 186.07Q882.74 186.07 881.99 186.89Q881.25 187.70 881.25 189.24" fill="white" fill-opacity="0.7"/>
<path d="M908.66 197.64L906.64 197.64L906.64 184.44L908.51 184.44L908.51 186.19L908.56 186.19Q908.68 185.30 909.27 184.75Q909.86 184.20 910.77 184.20Q911.63 184.20 912.23 184.70Q912.83 185.21 913.10 186.07L913.12 186.07Q913.29 185.21 913.88 184.70Q914.46 184.20 915.38 184.20Q916.65 184.20 917.40 185.15Q918.16 186.10 918.16 187.61L918.16 197.64L916.14 197.64L916.14 187.58Q916.14 186.79 915.76 186.32Q915.38 185.86 914.70 185.86Q914.06 185.86 913.67 186.31Q913.29 186.77 913.29 187.56L913.29 197.64L911.51 197.64L911.51 187.58Q911.51 186.79 911.13 186.32Q910.74 185.86 910.10 185.86Q909.42 185.86 909.04 186.31Q908.66 186.77 908.66 187.56" fill="white" fill-opacity="0.7"/>
<path d="M926.80 197.83Q924.42 197.83 923.02 196.44Q921.62 195.05 921.62 192.55L921.62 189.53Q921.62 187.01 923.01 185.63Q924.40 184.25 926.80 184.25Q929.20 184.25 930.59 185.63Q931.98 187.01 931.98 189.53L931.98 192.55Q931.98 195.05 930.58 196.44Q929.18 197.83 926.80 197.83M926.80 195.91Q928.22 195.91 929.02 195.12Q929.82 194.33 929.82 192.79L929.82 189.29Q929.82 187.75 929.02 186.96Q928.22 186.17 926.80 186.17Q925.41 186.17 924.59 186.96Q923.78 187.75 923.78 189.29L923.78 192.79Q923.78 194.33 924.59 195.12Q925.41 195.91 926.80 195.91" fill="white" fill-opacity="0.7"/>
<path d="M942.62 197.64L939.78 197.64L935.30 184.44L937.62 184.44L940.50 193.32Q940.77 194.11 940.96 194.84Q941.15 195.58 941.25 195.98Q941.37 195.58 941.54 194.84Q941.70 194.11 941.94 193.32L944.82 184.44L947.10 184.44" fill="white" fill-opacity="0.7"/>
<path d="M961.72 197.64L950.44 197.64L950.44 195.67L955.12 195.67L955.12 186.41L950.92 186.41L950.92 184.44L957.28 184.44L957.28 195.67L961.72 195.67L961.72 197.64M955.96 182.06Q955.17 182.06 954.71 181.66Q954.26 181.25 954.26 180.55Q954.26 179.83 954.71 179.41Q955.17 178.99 955.96 178.99Q956.75 178.99 957.21 179.41Q957.66 179.83 957.66 180.55Q957.66 181.25 957.21 181.66Q956.75 182.06 955.96 182.06" fill="white" fill-opacity="0.7"/>
<path d="M970 197.88Q967.67 197.88 966.24 196.48Q964.82 195.07 964.82 192.60L964.82 189.48Q964.82 187.01 966.24 185.60Q967.67 184.20 970 184.20Q971.56 184.20 972.72 184.82Q973.89 185.45 974.54 186.58Q975.18 187.70 975.18 189.24L975.18 191.59L966.93 191.59L966.93 192.84Q966.93 194.30 967.77 195.16Q968.61 196.01 970 196.01Q971.20 196.01 971.98 195.54Q972.76 195.07 972.93 194.28L975.09 194.28Q974.87 195.94 973.48 196.91Q972.09 197.88 970 197.88M966.93 189.24L966.93 189.91L973.07 189.91L973.07 189.24Q973.07 187.68 972.27 186.83Q971.46 185.98 970 185.98Q968.54 185.98 967.73 186.83Q966.93 187.68 966.93 189.24" fill="white" fill-opacity="0.7"/>
<path d="M996.45 197.64L994.29 197.64L994.29 184.44L996.45 184.44L996.45 186.96L996.50 186.96Q996.66 185.69 997.58 184.94Q998.49 184.20 1000.02 184.20Q1002.09 184.20 1003.20 185.44Q1004.32 186.67 1004.32 188.95L1004.32 190.08L1002.16 190.08L1002.16 188.95Q1002.16 186.07 999.35 186.07Q997.94 186.07 997.19 186.89Q996.45 187.70 996.45 189.24" fill="white" fill-opacity="0.7"/>
<path d="M1013.20 197.88Q1010.87 197.88 1009.44 196.48Q1008.02 195.07 1008.02 192.60L1008.02 189.48Q1008.02 187.01 1009.44 185.60Q1010.87 184.20 1013.20 184.20Q1014.76 184.20 1015.92 184.82Q1017.09 185.45 1017.74 186.58Q1018.38 187.70 1018.38 189.24L1018.38 191.59L1010.13 191.59L1010.13 192.84Q1010.13 194.30 1010.97 195.16Q1011.81 196.01 1013.20 196.01Q1014.40 196.01 1015.18 195.54Q1015.96 195.07 1016.13 194.28L1018.29 194.28Q1018.07 195.94 1016.68 196.91Q1015.29 197.88 1013.20 197.88M1010.13 189.24L1010.13 189.91L1016.27 189.91L1016.27 189.24Q1016.27 187.68 1015.47 186.83Q1014.66 185.98 1013.20 185.98Q1011.74 185.98 1010.93 186.83Q1010.13 187.68 1010.13 189.24" fill="white" fill-opacity="0.7"/>
<path d="M1027.79 197.88Q1025.39 197.88 1023.95 196.54Q1022.51 195.19 1022.51 192.84L1022.51 189.24Q1022.51 186.89 1023.95 185.54Q1025.39 184.20 1027.79 184.20Q1030.07 184.20 1031.48 185.42Q1032.88 186.65 1032.95 188.76L1030.79 188.76Q1030.72 187.49 1029.93 186.80Q1029.14 186.12 1027.79 186.12Q1026.38 186.12 1025.52 186.92Q1024.67 187.73 1024.67 189.22L1024.67 192.84Q1024.67 194.33 1025.52 195.14Q1026.38 195.96 1027.79 195.96Q1029.14 195.96 1029.93 195.26Q1030.72 194.57 1030.79 193.32L1032.95 193.32Q1032.88 195.43 1031.48 196.66Q1030.07 197.88 1027.79 197.88" fill="white" fill-opacity="0.7"/>
<path d="M1042 197.83Q1039.62 197.83 1038.22 196.44Q1036.82 195.05 1036.82 192.55L1036.82 189.53Q1036.82 187.01 1038.21 185.63Q1039.60 184.25 1042 184.25Q1044.40 184.25 1045.79 185.63Q1047.18 187.01 1047.18 189.53L1047.18 192.55Q1047.18 195.05 1045.78 196.44Q1044.38 197.83 1042 197.83M1042 195.91Q1043.42 195.91 1044.22 195.12Q1045.02 194.33 1045.02 192.79L1045.02 189.29Q1045.02 187.75 1044.22 186.96Q1043.42 186.17 1042 186.17Q1040.61 186.17 1039.79 186.96Q1038.98 187.75 1038.98 189.29L1038.98 192.79Q1038.98 194.33 1039.79 195.12Q1040.61 195.91 1042 195.91" fill="white" fill-opacity="0.7"/>
<path d="M1054.05 197.64L1051.89 197.64L1051.89 184.44L1054.05 184.44L1054.05 186.96L1054.10 186.96Q1054.26 185.69 1055.18 184.94Q1056.09 184.20 1057.62 184.20Q1059.69 184.20 1060.80 185.44Q1061.92 186.67 1061.92 188.95L1061.92 190.08L1059.76 190.08L1059.76 188.95Q1059.76 186.07 1056.95 186.07Q1055.54 186.07 1054.79 186.89Q1054.05 187.70 1054.05 189.24" fill="white" fill-opacity="0.7"/>
<path d="M1070.03 197.88Q1068.06 197.88 1066.88 196.56Q1065.69 195.24 1065.69 192.98L1065.69 189.12Q1065.69 186.84 1066.86 185.52Q1068.04 184.20 1070.03 184.20Q1071.52 184.20 1072.49 184.94Q1073.46 185.69 1073.66 186.96L1073.68 186.96L1073.63 183.96L1073.63 180.12L1075.79 180.12L1075.79 197.64L1073.63 197.64L1073.63 195.12L1073.61 195.12Q1073.44 196.42 1072.48 197.15Q1071.52 197.88 1070.03 197.88M1070.75 196.01Q1072.10 196.01 1072.86 195.17Q1073.63 194.33 1073.63 192.84L1073.63 189.24Q1073.63 187.75 1072.86 186.91Q1072.10 186.07 1070.75 186.07Q1069.38 186.07 1068.62 186.78Q1067.85 187.49 1067.85 189.12L1067.85 192.96Q1067.85 194.57 1068.62 195.29Q1069.38 196.01 1070.75 196.01" fill="white" fill-opacity="0.7"/>
<path d="M1085.73 197.83L1084.67 197.83Q1082.46 197.83 1081.25 196.84Q1080.04 195.84 1080.04 194.02L1082.20 194.02Q1082.20 194.93 1082.85 195.44Q1083.50 195.96 1084.67 195.96L1085.73 195.96Q1086.93 195.96 1087.59 195.43Q1088.25 194.90 1088.25 193.94Q1088.25 192.24 1086.69 192.02L1083.04 191.50Q1081.70 191.30 1080.95 190.38Q1080.21 189.46 1080.21 187.94Q1080.21 186.22 1081.40 185.23Q1082.58 184.25 1084.67 184.25L1085.73 184.25Q1087.65 184.25 1088.86 185.20Q1090.07 186.14 1090.17 187.68L1087.98 187.68Q1087.94 186.98 1087.32 186.53Q1086.71 186.07 1085.73 186.07L1084.67 186.07Q1083.57 186.07 1082.94 186.58Q1082.32 187.08 1082.32 187.94Q1082.32 189.34 1083.59 189.53L1087 190.01Q1090.36 190.49 1090.36 193.94Q1090.36 195.79 1089.15 196.81Q1087.94 197.83 1085.73 197.83" fill="white" fill-opacity="0.7"/>
<path d="M1099.60 197.88Q1098.71 197.88 1098.17 197.35Q1097.63 196.82 1097.63 195.98Q1097.63 195.10 1098.17 194.54Q1098.71 193.99 1099.60 193.99Q1100.49 193.99 1101.03 194.54Q1101.57 195.10 1101.57 195.98Q1101.57 196.82 1101.03 197.35Q1100.49 197.88 1099.60 197.88" fill="white" fill-opacity="0.7"/>
<path d="M80.05 136.06L70.54 136.06L70.54 65.98L80.05 65.98L80.05 95.55L101.55 95.55L101.55 65.98L111.06 65.98L111.06 136.06L101.55 136.06L101.55 104.19L80.05 104.19L80.05 136.06M153.20 136.06L143.70 136.06L143.70 110.04L122.67 65.98L132.75 65.98L145.71 93.63Q146.86 96.12 147.58 98.14Q148.30 100.16 148.50 101.02Q148.78 100.16 149.50 98.14Q150.22 96.12 151.47 93.63L164.34 65.98L174.13 65.98L153.20 110.04L153.20 136.06M204.46 136.06L185.65 136.06L185.65 65.98L204.46 65.98Q211.28 65.98 216.32 68.62Q221.36 71.26 224.14 76.01Q226.93 80.76 226.93 87.20L226.93 114.75Q226.93 121.18 224.14 125.98Q221.36 130.78 216.32 133.42Q211.28 136.06 204.46 136.06M195.15 74.43L195.15 127.61L204.46 127.61Q210.51 127.61 213.97 124.16Q217.42 120.70 217.42 114.75L217.42 87.20Q217.42 81.24 213.97 77.84Q210.51 74.43 204.46 74.43L195.15 74.43M252.75 136.06L243.34 136.06L243.34 65.98L265.04 65.98Q271.47 65.98 276.27 68.52Q281.07 71.07 283.76 75.63Q286.45 80.19 286.45 86.33Q286.45 93.44 282.85 98.52Q279.25 103.61 273.30 105.72L287.41 136.06L276.94 136.06L263.60 106.78L252.75 106.78L252.75 136.06M252.75 74.43L252.75 98.33L265.04 98.33Q270.42 98.33 273.54 95.07Q276.66 91.80 276.66 86.43Q276.66 80.96 273.49 77.69Q270.32 74.43 265.04 74.43L252.75 74.43M306.51 136.06L296.82 136.06L314.96 65.98L327.54 65.98L345.58 136.06L335.89 136.06L331.47 117.82L310.93 117.82L306.51 136.06M317.94 88.92L312.85 109.95L329.55 109.95L324.56 89.02Q323.12 83.26 322.26 79.23Q321.39 75.20 321.20 73.76Q321.01 75.20 320.14 79.23Q319.28 83.26 317.94 88.92M365.55 136.06L356.53 136.06L356.53 65.98L369.97 65.98L378.61 96.22L387.63 65.98L401.17 65.98L401.17 136.06L392.05 136.06L392.05 103.90Q392.05 98.81 392.24 92.62Q392.43 86.43 392.77 80.24Q393.10 74.04 393.49 69.05L382.54 104.96L374.48 104.96L363.92 69.92Q364.78 76.92 365.17 85.52Q365.55 94.11 365.55 103.90L365.55 136.06M436.40 137.02Q426.80 137.02 421.23 131.45Q415.66 125.88 415.66 115.71L415.66 86.24Q415.66 76.16 421.23 70.59Q426.80 65.02 436.40 65.02Q446 65.02 451.57 70.54Q457.14 76.06 457.14 86.24L457.14 115.71Q457.14 125.88 451.57 131.45Q446 137.02 436.40 137.02M436.40 128.57Q441.78 128.57 444.70 125.50Q447.63 122.43 447.63 116.67L447.63 85.28Q447.63 79.61 444.75 76.54Q441.87 73.47 436.40 73.47Q430.93 73.47 428.05 76.54Q425.17 79.61 425.17 85.28L425.17 116.67Q425.17 122.43 428.10 125.50Q431.02 128.57 436.40 128.57M500.34 136.06L487.57 136.06L469.62 65.98L479.41 65.98L491.02 113.21Q492.18 117.72 492.99 121.90Q493.81 126.08 494.19 128.28Q494.48 126.08 495.39 121.85Q496.30 117.63 497.36 113.12L508.59 65.98L518.38 65.98L500.34 136.06M570.70 136.06L532.50 136.06L532.50 127.42L546.80 127.42L546.80 74.62L532.50 74.62L532.50 65.98L570.70 65.98L570.70 74.62L556.40 74.62L556.40 127.42L570.70 127.42L570.70 136.06M630.51 136.06L589.71 136.06L589.71 65.98L630.51 65.98L630.51 74.52L599.12 74.52L599.12 95.36L627.15 95.36L627.15 103.61L599.12 103.61L599.12 127.52L630.51 127.52L630.51 136.06M667.18 137.02Q656.82 137.02 650.67 131.60Q644.53 126.17 644.53 116.67L654.03 116.67Q654.03 122.24 657.58 125.40Q661.14 128.57 667.18 128.57Q672.94 128.57 676.35 125.36Q679.76 122.14 679.76 116.76Q679.76 112.73 677.55 109.71Q675.34 106.68 671.31 105.63L660.94 102.84Q654.13 100.92 650.14 95.88Q646.16 90.84 646.16 83.93Q646.16 78.27 648.70 74Q651.25 69.72 655.86 67.37Q660.46 65.02 666.51 65.02Q672.66 65.02 677.31 67.37Q681.97 69.72 684.56 73.95Q687.15 78.17 687.15 83.74L677.74 83.74Q677.74 79.13 674.62 76.25Q671.50 73.37 666.51 73.37Q661.52 73.37 658.50 76.25Q655.47 79.13 655.47 83.74Q655.47 87.48 657.49 90.03Q659.50 92.57 663.15 93.63L673.81 96.51Q681.01 98.43 685.04 103.85Q689.07 109.28 689.07 116.76Q689.07 122.91 686.38 127.47Q683.70 132.03 678.75 134.52Q673.81 137.02 667.18 137.02" fill="url(#paint2_linear_0_1)"/>
<g id="Group 1">
<rect id="Rectangle 1" x="26" y="168" width="12" height="184" rx="5" fill="url(#paint3_linear_0_1)" fill-opacity="0.9"/>
</g>
<g id="Group 1_2">
<rect id="Rectangle 2" x="26" y="38" width="12" height="119" rx="5" fill="url(#paint4_linear_0_1)" fill-opacity="0.9"/>
</g>
<ellipse id="Ellipse 1" cx="148.5" cy="573" rx="215.5" ry="214" fill="url(#paint5_linear_0_1)" fill-opacity="0.4"/>
<rect id="Rectangle 3" x="1229" y="48" width="300" height="300" rx="25" fill="#FFFBFB" fill-opacity="0.9"/>
<g id="placeholder-logo"><g transform="translate(1229,48) translate(0.0,60.0) scale(1.2000)"><g fill="#666666">
  <path d="m88.05,27.65c-3.15,4 -3.2,51.2 -0.05,54.35c2.75,2.75 71.7,3.15 74.45,0.45c2.85,-2.9 2.3,-53.85 -0.65,-55.9c-1.95,-1.35 -7.15,-1.55 -36.95,-1.55l-34.7,0l-2.1,2.65zm69.45,3.35c0.65,0 1,8.6 1,23.75l0,23.75l-33,0l-33,0l-0.25,-23c-0.15,-12.6 -0.1,-23.45 0.15,-24.1c0.35,-0.85 8.9,-1.05 32.25,-0.75c17.55,0.2 32.3,0.35 32.85,0.35z"/>
  <path d="m99.15,37.3c-6.85,7.35 4.25,17.35 11.4,10.25c1.35,-1.35 2.45,-3.65 2.45,-5.05c0,-6.45 -9.35,-9.95 -13.85,-5.2z"/>
  <path d="m135,42.5c-0.7,0.85 -5.25,5.15 -10.1,9.6l-8.85,8.1l-3.2,-3.2l-3.15,-3.15l-6.35,6.3c-5.55,5.5 -6.35,6.75 -6.35,10.05l0,3.8l28.5,0l28.5,0l0,-8.6l0,-8.55l-8.15,-7.7c-9.35,-8.85 -9.15,-8.7 -10.85,-6.65zm7.25,15.2c0.95,0.9 1.75,2.9 1.75,4.45c6.35,-5.05 4.75,-7.15 4.9,-11.55c0.95,0 0,0 0,0l-6.65,7.1z"/>
  <path d="m53.65,110.75c0.1,4.8 0.45,8.65 0.75,8.5c0.35,-0.15 1.3,-0.25 2.1,-0.25c1.1,0 1.5,-1.2 1.5,-4.75l0,-4.75l3.25,5c4.9,7.5 6.2,6.75 6.55,-3.75c0.25,-8.15 0.15,-8.75 -1.7,-8.75c-1.65,0 -2.05,0.8 -2.3,4.75l-0.3,4.75l-2.8,-4.75c-4.85,-8.25 -7.25,-6.9 -7.05,4z"/>
  <path d="m91,108.9c0,9.65 0.3,10.1 6.1,10.1c5.8,0 7.15,-2.65 1.65,-3.2l-3.25,-0.3l-0.3,-6.75c-0.25,-5.95 -0.55,-6.75 -2.25,-6.75c-1.75,0 -1.95,0.7 -1.95,6.9z"/>
  <path d="m151,102.45c0,0.25 1,2.15 2.25,4.2c1.2,2.1 2.45,5.8 2.75,8.25c0.65,5.9 4,6.95 4,1.25c0.05,-2.1 1.25,-5.85 2.95,-8.9l2.9,-5.25l-2.5,0c-1.8,0 -2.8,0.85 -3.75,3.1l-1.3,3.05l-1.25,-3.05c-1.1,-2.6 -6.05,-4.8 -6.05,-2.65z"/>
  <path d="m191,107.45c0,9.05 3.4,8.85 4.25,-0.2c0.45,-5 0.35,-5.25 -1.9,-5.25c-2.2,0 -2.35,0.4 -2.35,5.45z"/>
  <path d="m180.8,104.75c-1.3,5.35 0.65,13.6 3.45,14.35c2.3,0.6 2.75,0.4 2.75,-1.2c0,-1.05 -0.45,-1.9 -1,-1.9c-0.55,0 -1,-1.6 -1,-3.5c0,-1.95 0.45,-3.5 1,-3.5c0.55,0 1,-0.7 1,-1.5c0,-0.85 -0.45,-1.5 -1,-1.5c-0.55,0 -1,-0.7 -1,-1.5c0,-2.1 -3.65,-1.9 -4.2,0.25z"/>
  <path d="m71.55,106.55c-2.2,2.25 -2.05,9.7 0.3,11.8c4.5,4.1 10.15,0.75 10.15,-6.1c0,-4.85 -2,-7.25 -6,-7.25c-1.55,0 -3.55,0.7 -4.45,1.55zm6.25,5.8c0.25,3.05 0,3.65 -1.6,3.65c-2.3,0 -3.25,-2.65 -2.05,-5.85c1.25,-3.35 3.3,-2.1 3.65,2.2z"/>
  <path d="m105.75,106.1c-2.5,1.45 -2.45,9.95 0.1,12.25c4.3,3.9 10.15,0.35 10.15,-6.2c0,-6 -5.15,-9.05 -10.25,-6.05zm6.05,6.25c0.25,3.05 0,3.65 -1.6,3.65c-2.3,0 -3.25,-2.65 -2.05,-5.85c1.25,-3.35 3.3,-2.1 3.65,2.2z"/>
  <path d="m119.2,106.2c-3.8,3.8 -0.4,12.55 4.4,11.35c1.9,-0.45 2.45,-0.3 2.15,0.65c-0.25,0.7 -1.55,1.2 -2.85,1.1c-4.05,-0.3 -5.35,0.45 -3.85,2.25c0.85,1.05 2.6,1.45 5.35,1.25l4.1,-0.3l0.3,-8.75l0.3,-8.75l-4.35,0c-2.4,0 -4.9,0.55 -5.55,1.2zm6.6,4.45c0.4,2.85 -2.15,4.85 -3.75,2.95c-0.9,-1.1 -0.9,-2 -0.05,-3.6c1.35,-2.5 3.4,-2.15 3.8,0.65z"/>
  <path d="m133.55,106.55c-2.2,2.25 -2.05,9.7 0.3,11.8c4.5,4.1 10.15,0.75 10.15,-6.1c0,-4.85 -2,-7.25 -6,-7.25c-1.55,0 -3.55,0.7 -4.45,1.55zm6.25,5.8c0.25,3.05 0,3.65 -1.6,3.65c-2.3,0 -3.25,-2.65 -2.05,-5.85c1.25,-3.35 3.3,-2.1 3.65,2.2z"/>
  <path d="m167.65,106.85c-3.9,4.3 -0.75,13.15 4.7,13.15c2.4,0 5.65,-2.75 5.65,-4.85c0,-1.4 -2.65,-1.55 -3.5,-0.15c-0.95,1.55 -4.5,1.15 -4.5,-0.5c0,-1.1 1.1,-1.5 4,-1.5c3.15,0 4,-0.35 4,-1.8c0,-5.3 -6.85,-8.25 -10.35,-4.35z"/>
  <path d="m191,117.5c0,2.15 0.4,2.6 2.25,2.3c1.5,-0.2 2.25,-1 2.25,-2.3c0,-1.3 -0.75,-2.1 -2.25,-2.3c-1.85,-0.3 -2.25,0.15 -2.25,2.3z"/>
 </g></g></g>
</g>
<defs>
<linearGradient id="paint0_linear_0_1" x1="0" y1="198" x2="1584" y2="198" gradientUnits="userSpaceOnUse">
<stop stop-color="#3D052C"/>
<stop offset="1"/>
</linearGradient>
<linearGradient id="paint1_linear_0_1" x1="323" y1="-224" x2="323" y2="352" gradientUnits="userSpaceOnUse">
<stop stop-color="#28F6F2" stop-opacity="0.4"/>
<stop offset="1" stop-color="#17908E" stop-opacity="0.7"/>
</linearGradient>
<linearGradient id="paint2_linear_0_1" x1="148.5" y1="38" x2="148.5" y2="140" gradientUnits="userSpaceOnUse">
<stop stop-color="white"/>
<stop offset="1" stop-color="#999999"/>
</linearGradient>
<linearGradient id="paint3_linear_0_1" x1="38" y1="260" x2="26" y2="260" gradientUnits="userSpaceOnUse">
<stop stop-color="#D9D9D9"/>
<stop offset="1" stop-color="#737373"/>
</linearGradient>
<linearGradient id="paint4_linear_0_1" x1="38" y1="97.5" x2="26" y2="97.5" gradientUnits="userSpaceOnUse">
<stop stop-color="#D9D9D9"/>
<stop offset="1" stop-color="#737373"/>
</linearGradient>
<linearGradient id="paint5_linear_0_1" x1="27.5" y1="434.5" x2="148.5" y2="787" gradientUnits="userSpaceOnUse">
<stop stop-color="#2E21BC"/>
<stop offset="1" stop-color="#150F56"/>
</linearGradient>
<clipPath id="clip0_0_1">
<rect width="1584" height="396" fill="white"/>
</clipPath>
</defs>
</svg>
